<svg xmlns="http://www.w3.org/2000/svg" viewBox="0 0 705.513376 741.426185" role="img" aria-label="Nexus">
  <defs><linearGradient id="nexus" x1="0" y1="0" x2="0.35" y2="1">
    <stop offset="0%" stop-color="#ff7a2f"/><stop offset="38%" stop-color="#ff2d78"/><stop offset="100%" stop-color="#7c3aed"/>
  </linearGradient></defs>
  <g transform="translate(-155.500000,882.838615) scale(0.100000,-0.100000)" fill="url(#nexus)">
    <path d="M2955 8815 c-701 -98 -1238 -603 -1377 -1295 l-23 -115 0 -2285 0
-2285 23 -115 c244 -1226 1727 -1728 2634 -892 115 106 301 354 493 655 l87
138 -33 42 c-30 39 -248 304 -363 443 -28 33 -103 124 -166 202 -63 78 -117
142 -120 142 -4 0 -69 -84 -146 -187 -78 -104 -210 -280 -294 -392 -190 -255
-249 -305 -407 -346 -244 -64 -520 113 -573 368 -7 36 -10 708 -8 2257 l3
2205 22 54 c102 248 352 363 591 271 110 -42 152 -85 415 -416 122 -155 322
-404 444 -555 121 -151 283 -350 358 -444 76 -93 208 -255 294 -360 87 -104
222 -271 301 -370 79 -99 169 -210 199 -246 31 -36 153 -184 271 -329 118
-144 241 -295 273 -334 33 -39 79 -97 104 -128 57 -72 47 -74 140 28 375 412
437 928 166 1398 -51 89 -77 123 -363 465 -107 129 -303 366 -435 526 -132
160 -285 345 -340 412 -55 66 -156 190 -225 274 -240 295 -554 653 -696 794
-322 319 -808 482 -1249 420z"/>
    <path d="M6850 8815 c-454 -64 -782 -260 -1065 -638 -147 -196 -362 -551 -347
-570 94 -119 408 -507 446 -552 29 -33 91 -108 140 -167 l87 -108 103 143
c209 291 454 614 502 661 246 244 644 129 752 -217 21 -66 32 -4305 12 -4412
-43 -220 -207 -366 -412 -365 -141 1 -224 58 -372 252 -310 410 -638 829 -858
1098 -16 19 -117 145 -226 280 -108 134 -242 299 -297 366 -55 66 -149 183
-210 260 -60 76 -155 193 -210 260 -55 66 -143 173 -195 238 -81 101 -320 392
-439 535 l-36 44 -109 -119 c-477 -520 -484 -1066 -23 -1612 139 -163 739
-912 1068 -1332 85 -107 185 -233 224 -280 38 -47 135 -168 215 -270 198 -254
316 -393 397 -471 755 -728 1978 -490 2451 477 68 139 100 236 139 421 21 99
33 4479 13 4658 -99 882 -907 1537 -1750 1420z"/>
  </g>
</svg>
